<?xml version="1.0" encoding="UTF-8" standalone="no" ?>
<!DOCTYPE svg PUBLIC "-//W3C//DTD SVG 1.1//EN" "http://www.w3.org/Graphics/SVG/1.1/DTD/svg11.dtd">
<svg xmlns="http://www.w3.org/2000/svg" xmlns:xlink="http://www.w3.org/1999/xlink" version="1.1" width="1080" height="1080" viewBox="0 0 1080 1080" xml:space="preserve">
<desc>Created with Fabric.js 5.2.4</desc>
<defs>
</defs>
<g transform="matrix(1 0 0 1 540 540)" id="914de028-5446-4d97-a3b3-32d9debda80d"  >
<rect style="stroke: none; stroke-width: 1; stroke-dasharray: none; stroke-linecap: butt; stroke-dashoffset: 0; stroke-linejoin: miter; stroke-miterlimit: 4; fill: rgb(255,255,255); fill-rule: nonzero; opacity: 1; visibility: hidden;" vector-effect="non-scaling-stroke"  x="-540" y="-540" rx="0" ry="0" width="1080" height="1080" />
</g>
<g transform="matrix(1 0 0 1 540 540)" id="3afe13c6-b3e9-4aec-aacd-b526e03907d8"  >
</g>
<g transform="matrix(1 0 0 1 540 540)" id="9211acd6-fc91-4b05-a46c-a8d98cf34233"  >
<path style="stroke: rgb(255,255,255); stroke-width: 0; stroke-dasharray: none; stroke-linecap: butt; stroke-dashoffset: 0; stroke-linejoin: miter; stroke-miterlimit: 4; fill: rgb(255,255,255); fill-rule: nonzero; opacity: 1;" vector-effect="non-scaling-stroke"  transform=" translate(-61.32, -61.44)" d="M 26.68 26.77 L 51.91 26.77 L 51.91 51.89 L 26.68 51.89 L 26.68 26.77 Z M 35.67 0 L 23.07 0 C 20.059598151514063 -0.0034405620174915615 17.078526554669303 0.591414089576386 14.300000000000002 1.7499999999999964 C 11.499858615262985 2.909842475555804 8.954965030851872 4.608703346324239 6.810000000000006 6.7499999999999964 L 6.8100000000000005 6.75 C 4.669308890849672 8.895461272123969 2.9705329921713965 11.440227568344028 1.810000000000004 14.239999999999997 C 0.6243086706835494 17.033319056738584 0.008920191995302362 20.035462850560265 1.7763568394002505e-15 23.070000000000014 L 0 38.64 L 10.23 38.64 L 10.23 23.07 C 10.240510136555969 21.3870730996581 10.580226094314362 19.72246490664197 11.229999999999999 18.17 C 11.867751051155635 16.610107521600952 12.809345903149373 15.192616354520123 14 13.999999999999998 L 14 14 C 16.406837047791054 11.597309777923405 19.669149718304183 10.24850354700563 23.069999999999993 10.250000000000002 L 35.67 10.25 L 35.67 0 Z M 99.54 0 L 91.31 0 L 91.31 10.23 L 99.54 10.23 C 101.22281976059784 10.24153726836801 102.88723119066923 10.581213070423393 104.44000000000001 11.229999999999999 C 105.99443531099405 11.878008378437789 107.41004415330853 12.818352861222234 108.61 13.999999999999995 L 108.96 14.36 L 108.96 14.36 C 109.99317296170845 15.480725184257652 110.8223359873 16.773542636404468 111.41 18.180000000000007 C 112.06427189615349 19.72757001705625 112.40419994079375 21.389818155347182 112.41 23.070000000000004 L 112.41 38.64 L 122.64 38.64 L 122.64 23.07 C 122.64246447597415 17.129208687031166 120.34114396667115 11.418922750396138 116.22 7.1399999999999935 L 116.22 7.140000000000001 L 115.85 6.7700000000000005 C 113.70453872787603 4.629308890849671 111.15977243165598 2.9305329921714023 108.36000000000001 1.7700000000000076 C 105.56696072225911 0.5993322564601742 102.56845266906014 -0.002409155576357014 99.54000000000002 -2.6645352591003757e-15 Z M 122.61000000000001 99.81 L 122.61000000000001 82.52 L 112.38 82.52 L 112.38 99.81 C 112.37419994079374 101.49018184465282 112.03427189615348 103.15242998294376 111.38 104.7 C 110.72482339341758 106.25783442512117 109.7739614329929 107.67393955903935 108.58 108.87 C 106.18240429222747 111.28404005054698 102.92235518754123 112.64419298826374 99.52 112.65 L 91.31 112.65 L 91.31 122.88000000000001 L 99.54 122.88000000000001 C 105.65542729425117 122.87553248405082 111.51729479787241 120.43578652490092 115.83000000000001 116.10000000000001 C 117.96709032358366 113.95159058427967 119.66536342785068 111.40757747408772 120.83000000000001 108.61000000000001 C 121.98537272216643 105.81999242571968 122.58001864979471 102.82977290393171 122.58000000000001 99.81000000000002 Z M 23.07 122.88 L 35.67 122.88 L 35.67 112.65 L 23.07 112.65 C 19.66417726391198 112.64685135743777 16.400040279527115 111.28649437827848 14 108.87 L 13.74 108.63000000000001 C 12.618858257561428 107.44803836633585 11.733077854571354 106.06337015016746 11.13 104.55000000000001 C 10.526460198419112 103.04269626501619 10.21754926122198 101.43364369104432 10.22 99.81000000000003 L 10.22 82.52 L 0 82.52 L 0 99.81 C -0.004666042347517061 102.74796397149198 0.5625466523340217 105.65875007533677 1.6699999999999982 108.38 C 2.773744296293819 111.12694956865668 4.400535187461507 113.63336225692757 6.459999999999999 115.75999999999999 L 6.77 116.10999999999999 C 8.91906933096829 118.25097045109935 11.467154456305092 119.94969386799055 14.269999999999996 121.10999999999999 C 17.058779019655066 122.26941862921645 20.049814225468012 122.86422676673607 23.070000000000004 122.85999999999999 Z M 89.59 89.78 L 96 89.78 L 96 96.11 L 89.59 96.11 L 89.59 89.78 Z M 77.23 89.78 L 83.67 89.78 L 83.67 95.78 L 70.8 95.78 L 70.8 83.47 L 77 83.47 L 77 77.22 L 83.34 77.22 L 83.34 64.76 L 89.8 64.76 L 89.8 70.88000000000001 L 95.92 70.88000000000001 L 95.92 77.21000000000001 L 89.8 77.21000000000001 L 89.8 83.54 L 77.23 83.54 L 77.23 89.77000000000001 Z M 58.14 77.12 L 64.37 77.12 L 64.37 70.79 L 58.370000000000005 70.79 L 58.370000000000005 64.46 L 64.37 64.46 L 64.37 58.13 L 58.24 58.13 L 58.24 64.46000000000001 L 51.8 64.46000000000001 L 51.8 58.13 L 58.129999999999995 58.13 L 58.129999999999995 39.33 L 64.56 39.33 L 64.56 58.12 L 70.79 58.12 L 70.79 64.45 L 76.92 64.45 L 76.92 58.12 L 83.35 58.12 L 83.35 64.45 L 77.23 64.45 L 77.23 70.78 L 70.8 70.78 L 70.8 83.24 L 64.57 83.24 L 64.57 95.81 L 58.14 95.81 L 58.14 77.12 Z M 89.49000000000001 58.120000000000005 L 95.92000000000002 58.120000000000005 L 95.92000000000002 64.45 L 89.49 64.45 L 89.49 58.12 Z M 39.25000000000001 58.120000000000005 L 45.68000000000001 58.120000000000005 L 45.68000000000001 64.45 L 39.25 64.45 L 39.25 58.12 Z M 26.680000000000007 58.120000000000005 L 33.11000000000001 58.120000000000005 L 33.11000000000001 64.45 L 26.68 64.45 L 26.68 58.12 Z M 58.14 26.77 L 64.57 26.77 L 64.57 33.1 L 58.14 33.1 L 58.14 26.77 Z M 26.58 70.88 L 51.8 70.88 L 51.8 96 L 26.58 96 L 26.58 70.88 Z M 32.71 77 L 45.71 77 L 45.71 89.91 L 32.71 89.91 L 32.71 77 Z M 70.71000000000001 26.78 L 95.92 26.78 L 95.92 51.89 L 70.7 51.89 L 70.7 26.77 Z M 76.84 32.88 L 89.84 32.88 L 89.84 45.79 L 76.84 45.79 L 76.84 32.87 Z M 32.84 32.88 L 45.84 32.88 L 45.84 45.79 L 32.84 45.79 L 32.84 32.87 Z" stroke-linecap="round" />
</g>
</svg>